<?xml version="1.0" standalone="no"?><!DOCTYPE svg PUBLIC "-//W3C//DTD SVG 1.1//EN" "http://www.w3.org/Graphics/SVG/1.1/DTD/svg11.dtd"><svg t="1750225264202" class="icon" viewBox="0 0 1024 1024" version="1.1" xmlns="http://www.w3.org/2000/svg" p-id="5253" xmlns:xlink="http://www.w3.org/1999/xlink" width="200" height="200"><path d="M 850.241 341.639 c 93.0318 0 169.208 -76.177 169.208 -169.208 S 943.271 3.22239 850.241 3.22239 S 681.033 79.3994 681.033 172.431 s 75.0196 169.208 169.208 169.208 Z M 171.26 341.639 c 93.0318 0 169.208 -76.177 169.208 -169.208 S 264.291 3.22239 171.26 3.22239 S 2.05173 79.3994 2.05173 172.431 s 76.177 169.208 169.208 169.208 Z M 850.241 426.243 c -93.0318 0 -169.208 76.177 -169.208 169.208 v 67.749 l -170.199 98.3193 l -169.208 -98.3193 v -67.749 c 0 -93.0318 -76.177 -169.208 -169.208 -169.208 S 3.20807 502.42 3.20807 595.451 v 380.718 c 0 23.2986 19.0028 42.3025 42.3025 42.3025 h 253.812 c 23.2986 0 42.3025 -19.0028 42.3025 -42.3025 v -214.649 l 145.909 84.6039 c 0.991584 0 0.991584 0.991584 2.14792 0.991584 c 12.7238 7.43637 28.5871 8.42693 42.3025 0 l 149.049 -86.7518 v 215.806 c 0 23.2986 19.0028 42.3025 42.3025 42.3025 h 253.812 c 23.2986 0 42.3025 -19.0028 42.3025 -42.3025 V 595.451 c -0.001023 -93.0308 -76.178 -169.208 -169.209 -169.208 Z" fill="#ffffff" p-id="5254"></path></svg>